<?xml version="1.0" encoding="UTF-8" standalone="no"?>
<svg
   xmlns:dc="http://purl.org/dc/elements/1.1/"
   xmlns:cc="http://creativecommons.org/ns#"
   xmlns:rdf="http://www.w3.org/1999/02/22-rdf-syntax-ns#"
   xmlns:svg="http://www.w3.org/2000/svg"
   xmlns="http://www.w3.org/2000/svg"
   viewBox="0 0 937.3125 269.58749"
   height="269.58749"
   width="937.3125"
   xml:space="preserve"
   version="1.1"
   id="svg2"><metadata
     id="metadata8"><rdf:RDF><cc:Work
         rdf:about=""><dc:format>image/svg+xml</dc:format><dc:type
           rdf:resource="http://purl.org/dc/dcmitype/StillImage" /></cc:Work></rdf:RDF></metadata><defs
     id="defs6" /><g
     transform="matrix(1.25,0,0,-1.25,0,269.5875)"
     id="g10"><g
       transform="scale(0.1,0.1)"
       id="g12"><path
         id="path14"
         style="fill:#2d65b4;fill-opacity:1;fill-rule:nonzero;stroke:none"
         d="m 77.9727,554.09 56.3283,0 c 37.816,0 71.344,-6.031 99.652,-17.93 28.238,-11.871 52.063,-27.988 70.797,-47.89 18.746,-19.942 33.004,-43.489 42.383,-70.051 9.472,-26.797 14.273,-55.61 14.273,-85.649 0,-29.761 -4.859,-58.511 -14.441,-85.429 -9.52,-26.7 -23.844,-50.332 -42.578,-70.25 -18.735,-19.922 -42.496,-36.032 -70.625,-47.911 -28.192,-11.89 -61.653,-17.929 -99.461,-17.929 l -56.3283,0 0,443.039 z M 402.844,482.078 c -12.371,21.723 -27.614,41.641 -45.305,59.223 -17.68,17.539 -37.769,32.769 -59.707,45.25 -21.93,12.48 -46.062,22.238 -71.734,29.039 -25.66,6.789 -53.184,10.238 -81.813,10.238 L 0,625.828 0,39.332 l 144.285,0 c 29.121,0 57.082,3.4961 83.11,10.4063 26.078,6.9414 50.418,16.9219 72.347,29.6523 21.961,12.7305 41.938,28.2384 59.363,46.0394 17.387,17.769 32.418,37.73 44.665,59.308 12.246,21.582 21.714,45.184 28.132,70.121 6.422,24.922 9.68,51.071 9.68,77.711 0,27.391 -3.383,54.008 -10.062,79.09 -6.676,25.031 -16.325,48.738 -28.676,70.418" /><path
         id="path16"
         style="fill:#2d65b4;fill-opacity:1;fill-rule:nonzero;stroke:none"
         d="m 1196.5,332.57 c 0,-33 -5.86,-63.879 -17.42,-91.73 -11.57,-27.899 -27.64,-52.309 -47.79,-72.559 -20.15,-20.261 -44.33,-36.371 -71.87,-47.91 -27.52,-11.531 -57.72,-17.391 -89.764,-17.391 -21.023,0 -41.476,2.782 -60.808,8.25 -19.379,5.481 -37.719,13.34 -54.512,23.379 -16.801,10.012 -32.309,22.2 -46.098,36.211 -13.781,14 -25.75,29.68 -35.562,46.621 -9.805,16.891 -17.5,35.309 -22.875,54.7 -5.367,19.339 -8.086,39.668 -8.086,60.429 0,32.289 5.801,62.821 17.238,90.692 11.445,27.879 27.477,52.41 47.641,72.918 20.136,20.468 44.367,36.761 72.023,48.422 27.649,11.66 58.028,17.558 90.305,17.558 31.238,0 60.948,-6.129 88.298,-18.219 27.48,-12.152 51.84,-28.851 72.4,-49.609 20.56,-20.781 37.03,-45.371 48.96,-73.062 11.89,-27.598 17.92,-57.45 17.92,-88.7 z m 36.97,152.379 c -13.1,22.289 -29.05,42.891 -47.42,61.27 -18.39,18.383 -39.14,34.34 -61.67,47.441 -22.56,13.11 -47.19,23.371 -73.18,30.531 -52.134,14.348 -112.677,14.348 -165.262,0 -26.254,-7.152 -51.004,-17.421 -73.575,-30.531 -22.55,-13.101 -43.297,-29.058 -61.672,-47.441 -18.39,-18.399 -34.285,-39.02 -47.25,-61.309 -12.976,-22.281 -23.128,-46.59 -30.171,-72.262 -7.055,-25.699 -10.629,-52.628 -10.629,-80.078 0,-27.441 3.574,-54.371 10.629,-80.05 7.043,-25.649 17.121,-49.969 29.968,-72.25 12.856,-22.309 28.7,-42.95 47.09,-61.329 18.383,-18.402 39.137,-34.3512 61.668,-47.441 22.535,-13.0898 47.356,-23.3789 73.766,-30.5508 26.422,-7.1679 54.586,-10.8008 83.711,-10.8008 28.652,0 56.397,3.6329 82.457,10.8204 26.02,7.1718 50.64,17.4414 73.18,30.5312 22.53,13.0898 43.23,29.059 61.52,47.461 18.24,18.379 34.07,38.98 47.04,61.269 12.97,22.29 23.12,46.602 30.16,72.29 7.06,25.699 10.64,52.628 10.64,80.05 0,27.68 -3.58,54.668 -10.64,80.282 -7.05,25.539 -17.26,49.796 -30.36,72.097" /><path
         id="path18"
         style="fill:#2d65b4;fill-opacity:1;fill-rule:nonzero;stroke:none"
         d="m 1607.62,625.828 -77.97,0 0,-586.496 259.22,0 0,71.719 -181.25,0 0,514.777" /><path
         id="path20"
         style="fill:#2d65b4;fill-opacity:1;fill-rule:nonzero;stroke:none"
         d="m 2399.81,618.07 c -30.83,11.231 -64.57,16.942 -100.29,16.942 -29.13,0 -57.24,-3.653 -83.53,-10.821 -26.24,-7.152 -51.05,-17.421 -73.74,-30.531 -22.69,-13.101 -43.45,-29.082 -61.71,-47.48 -18.26,-18.379 -34.04,-39 -46.88,-61.309 -12.86,-22.301 -22.89,-46.609 -29.8,-72.262 -6.93,-25.679 -10.44,-52.589 -10.44,-80.039 0,-27.379 3.45,-54.289 10.24,-79.98 6.8,-25.66 16.7,-50 29.42,-72.281 12.72,-22.309 28.37,-42.93 46.51,-61.329 18.18,-18.421 38.89,-34.3902 61.56,-47.4995 22.66,-13.0899 47.67,-23.3594 74.32,-30.5313 26.65,-7.1679 55.17,-10.8008 84.78,-10.8008 34.56,0 67.35,5.7618 97.47,17.1524 29.79,11.2695 58.6,26.8789 85.61,46.3906 l 4.14,2.9883 0,84.4683 -16.07,0 -3,-3.519 c -9.43,-11.027 -20.75,-21.109 -33.65,-29.981 -13.08,-9 -27.3,-16.757 -42.25,-23.058 -15.04,-6.352 -30.64,-11.352 -46.37,-14.871 -38.35,-8.59 -73.35,-6.231 -106.09,2.972 -19.5,5.489 -37.9,13.297 -54.68,23.219 -16.83,9.93 -32.41,21.961 -46.29,35.731 -13.86,13.73 -25.84,29.25 -35.63,46.148 -9.81,16.93 -17.51,35.293 -22.87,54.551 -5.36,19.199 -8.07,39.469 -8.07,60.23 0,32.289 5.79,62.739 17.22,90.489 11.43,27.75 27.43,52.089 47.56,72.339 20.13,20.25 44.35,36.372 71.98,47.911 27.62,11.543 57.99,17.382 90.26,17.382 15.76,0 31.71,-1.871 47.41,-5.601 15.83,-3.75 31.33,-9.031 46.06,-15.699 14.7,-6.653 28.67,-14.75 41.54,-24.11 12.8,-9.312 24.22,-19.66 33.95,-30.781 l 2.99,-3.422 16,0 0,84.672 -3.49,2.988 c -25.01,21.492 -53.33,38.071 -84.17,49.332" /><path
         id="path22"
         style="fill:#2d65b4;fill-opacity:1;fill-rule:nonzero;stroke:none"
         d="m 2756.23,39.332 300.69,0 0,71.719 -222.72,0 0,202.719 216.48,0 0,70.269 -216.48,0 0,170.051 222.72,0 0,71.738 -300.69,0 0,-586.496" /><path
         id="path24"
         style="fill:#2d65b4;fill-opacity:1;fill-rule:nonzero;stroke:none"
         d="m 4699.89,389.922 -298.11,0 0,235.906 -77.98,0 0,-586.496 77.98,0 0,280.309 298.11,0 0,-280.309 77.97,0 0,586.496 -77.97,0 0,-235.906" /><path
         id="path26"
         style="fill:#2d65b4;fill-opacity:1;fill-rule:nonzero;stroke:none"
         d="m 5564.69,332.57 c 0,-33 -5.86,-63.879 -17.42,-91.73 -11.56,-27.899 -27.64,-52.309 -47.77,-72.559 -20.16,-20.261 -44.34,-36.371 -71.88,-47.91 -27.52,-11.531 -57.71,-17.391 -89.76,-17.391 -21.03,0 -41.49,2.782 -60.81,8.25 -19.39,5.481 -37.73,13.34 -54.52,23.379 -16.8,10.012 -32.31,22.2 -46.1,36.211 -13.77,14 -25.74,29.68 -35.56,46.621 -9.8,16.891 -17.5,35.309 -22.88,54.7 -5.36,19.339 -8.08,39.668 -8.08,60.429 0,32.289 5.8,62.821 17.24,90.692 11.45,27.879 27.48,52.41 47.64,72.918 20.14,20.468 44.38,36.761 72.03,48.422 27.64,11.66 58.03,17.558 90.29,17.558 31.25,0 60.96,-6.129 88.31,-18.219 27.48,-12.152 51.84,-28.851 72.4,-49.609 20.56,-20.801 37.03,-45.371 48.96,-73.062 11.9,-27.598 17.91,-57.45 17.91,-88.7 z m 36.98,152.379 c -13.1,22.289 -29.05,42.891 -47.43,61.27 -18.39,18.383 -39.14,34.34 -61.67,47.441 -22.56,13.11 -47.17,23.371 -73.17,30.531 -52.13,14.348 -112.68,14.348 -165.26,0 -26.26,-7.152 -51.01,-17.421 -73.58,-30.531 -22.55,-13.101 -43.29,-29.058 -61.67,-47.441 -18.4,-18.399 -34.29,-39.02 -47.24,-61.309 -12.99,-22.281 -23.14,-46.59 -30.18,-72.262 -7.05,-25.699 -10.63,-52.628 -10.63,-80.078 0,-27.441 3.58,-54.371 10.63,-80.05 7.04,-25.649 17.12,-49.969 29.96,-72.25 12.86,-22.309 28.71,-42.95 47.09,-61.329 18.39,-18.402 39.14,-34.3512 61.68,-47.441 22.53,-13.0898 47.34,-23.3789 73.76,-30.5508 26.42,-7.1679 54.58,-10.8008 83.71,-10.8008 28.65,0 56.4,3.6329 82.46,10.8204 26.03,7.1718 50.65,17.4414 73.18,30.5312 22.53,13.0898 43.23,29.059 61.52,47.461 18.24,18.379 34.06,38.98 47.03,61.269 12.97,22.29 23.13,46.602 30.18,72.29 7.05,25.699 10.62,52.628 10.62,80.05 0,27.68 -3.57,54.668 -10.62,80.282 -7.05,25.539 -17.27,49.796 -30.37,72.097" /><path
         id="path28"
         style="fill:#2d65b4;fill-opacity:1;fill-rule:nonzero;stroke:none"
         d="m 6240.91,265.07 c 0,-28.609 -2.66,-53.711 -7.94,-74.609 -5.11,-20.25 -13.03,-37.102 -23.55,-50.09 -10.31,-12.742 -23.64,-22.351 -39.62,-28.519 -16.47,-6.372 -36.65,-9.59 -59.97,-9.59 -46.86,0 -81.99,12.929 -104.44,38.418 -22.79,25.879 -34.33,67.73 -34.33,124.39 l 0,360.758 -78.71,0 0,-372.867 c 0,-34.473 4.69,-65.801 13.92,-93.102 9.35,-27.679 23.36,-51.5 41.65,-70.8199 18.33,-19.3594 41.11,-34.3203 67.73,-44.4688 26.35,-10.0586 56.74,-15.1601 90.33,-15.1601 34.05,0 64.67,4.9804 91,14.7695 26.64,9.8984 49.33,24.6211 67.44,43.7617 18.06,19.1096 31.83,42.8986 40.95,70.7306 8.97,27.437 13.52,59.156 13.52,94.289 l 0,372.867 -77.98,0 0,-360.758" /><path
         id="path30"
         style="fill:#2d65b4;fill-opacity:1;fill-rule:nonzero;stroke:none"
         d="m 6904.63,302.809 c -10.11,13.461 -23.2,26.031 -38.9,37.339 -15.43,11.122 -34.06,21.602 -55.34,31.122 L 6769.18,390 c -16.93,7.629 -31.62,15.109 -43.63,22.238 -11.58,6.883 -21.16,14.121 -28.47,21.543 -6.96,7.071 -12.09,14.797 -15.26,23.008 -3.2,8.34 -4.83,18.262 -4.83,29.473 0,11.758 2.06,22.379 6.12,31.558 4.02,9.141 9.72,16.989 16.91,23.36 7.3,6.449 16.19,11.531 26.42,15.121 19.73,6.929 45.45,7.187 66.44,1.289 10.05,-2.828 19.67,-6.84 28.58,-11.918 8.95,-5.07 17.39,-11.281 25.13,-18.453 7.83,-7.25 15.08,-15.278 21.56,-23.828 l 7.27,-9.571 47.91,52.5 -4.45,6.52 c -8.25,12.109 -18.05,23.262 -29.13,33.148 -11.07,9.84 -23.47,18.41 -36.85,25.442 -13.4,7.031 -28.19,12.539 -43.95,16.351 -15.74,3.821 -32.65,5.75 -50.23,5.75 -22.46,0 -43.7,-3.883 -63.11,-11.531 -19.48,-7.668 -36.59,-18.488 -50.86,-32.191 -14.28,-13.731 -25.58,-30.071 -33.61,-48.59 -8.05,-18.547 -12.13,-38.918 -12.13,-60.508 0,-19.609 3.28,-37.461 9.75,-53.039 6.42,-15.473 15.52,-29.633 27.04,-42.051 11.32,-12.25 24.93,-23.32 40.41,-32.91 15.09,-9.371 31.96,-18.281 50,-26.441 l 43.03,-20.239 c 15.98,-7.301 29.69,-14.961 40.76,-22.75 10.8,-7.64 19.67,-15.75 26.39,-24.16 6.53,-8.172 11.33,-16.961 14.24,-26.16 2.98,-9.371 4.49,-19.902 4.49,-31.281 0,-13.34 -2.42,-26.2 -7.19,-38.168 -4.74,-11.934 -11.68,-22.621 -20.6,-31.782 -8.91,-9.14 -19.95,-16.46 -32.81,-21.789 -12.9,-5.332 -27.8,-8.05 -44.24,-8.05 -14.59,0 -28.71,2.07 -42,6.168 -13.28,4.101 -25.69,10.101 -36.91,17.832 -11.27,7.781 -21.55,17.347 -30.56,28.461 -9.03,11.109 -16.63,23.886 -22.59,37.929 l -5.39,12.719 -53.5,-46.738 2.59,-6.571 c 7.19,-18.242 16.96,-35.031 29.05,-49.961 12.09,-14.9214 26.38,-27.8511 42.45,-38.3706 16.03,-10.5313 34.08,-18.7891 53.67,-24.5586 19.56,-5.7422 40.56,-8.6524 62.45,-8.6524 28.08,0 53.82,4.7735 76.48,14.1602 22.64,9.4023 42.25,22.3125 58.28,38.3398 16.04,16.0625 28.56,34.8716 37.21,55.9606 8.65,21.071 13.05,43.403 13.05,66.411 0,19.21 -2.44,37.05 -7.23,52.98 -4.84,16.121 -12.48,31.18 -22.7,44.809" /><path
         id="path32"
         style="fill:#2d65b4;fill-opacity:1;fill-rule:nonzero;stroke:none"
         d="m 7498.5,554.09 0,71.738 -300.68,0 0,-586.496 300.68,0 0,71.719 -222.71,0 0,202.719 216.47,0 0,70.269 -216.47,0 0,170.051 222.71,0" /><path
         id="path34"
         style="fill:#2d65b4;fill-opacity:1;fill-rule:nonzero;stroke:none"
         d="m 3704.71,0 410.59,1576.62 c 15.94,45.27 24.7,93.94 24.7,144.67 0,240.47 -194.93,435.4 -435.41,435.4 -43.37,0 -85.23,-6.43 -124.77,-18.24 13.84,-40.05 21.44,-82.93 21.44,-127.58 0,-191.22 -137.58,-350.81 -320.69,-388.32 3.86,-16.66 8.6,-32.99 14.32,-48.86 L 3704.71,0" /></g></g></svg>